<?xml version="1.0" encoding="utf-8"?>
<!-- Generator: Adobe Illustrator 18.1.1, SVG Export Plug-In . SVG Version: 6.00 Build 0)  -->
<!DOCTYPE svg PUBLIC "-//W3C//DTD SVG 1.1//EN" "http://www.w3.org/Graphics/SVG/1.1/DTD/svg11.dtd">
<svg version="1.1" id="Layer_1" xmlns="http://www.w3.org/2000/svg" xmlns:xlink="http://www.w3.org/1999/xlink" x="0px" y="0px"
	 viewBox="0 0 640 640" enable-background="new 0 0 640 640" xml:space="preserve">
<g>
	<path fill="#4495D1" d="M522.2,3397.9h33.6c13.4,0,20.5-9.5,22.5-17.6c2-7.8,0.3-18.9-10.3-25.4l-45.8,22.6V3397.9z"/>
	<polygon fill="#4495D1" points="522.2,3372 562.5,3352.1 522.2,3332.2 	"/>
	<path fill="#4495D1" d="M546.5,3253c-54.3,0-98.5,44.2-98.5,98.5c0,54.3,44.2,98.5,98.5,98.5c54.3,0,98.5-44.2,98.5-98.5
		C645,3297.2,600.8,3253,546.5,3253z M583.2,3381.6c-3.2,13-14,21.3-27.3,21.3h-38.6v-22.8v-55.9v-22.8h38.6
		c13.4,0,24.1,8.4,27.3,21.3c2.9,11.6-1.2,22.7-10.4,29.4C582,3358.9,586.1,3370,583.2,3381.6z"/>
	<path fill="#4495D1" d="M578.3,3323.9c-2-8.1-9.1-17.6-22.5-17.6h-33.6v20.3l45.8,22.6C578.7,3342.9,580.3,3331.7,578.3,3323.9z"/>
</g>
<g>
	<path fill="#007AFF" d="M246.7,460.7H349c40.7,0,62.3-28.8,68.5-53.5c6-23.8,1-57.7-31.4-77.3l-139.4,69V460.7z"/>
	<polygon fill="#007AFF" points="246.7,381.9 369.2,321.3 246.7,260.7 	"/>
	<path fill="#007AFF" d="M320.5,19.5c-165.4,0-300,134.6-300,300c0,165.4,134.6,300,300,300c165.4,0,300-134.6,300-300
		C620.5,154.1,485.9,19.5,320.5,19.5z M432.3,410.9c-9.9,39.5-42.6,65-83.3,65H231.4v-69.5V236.2v-69.5H349
		c40.7,0,73.4,25.5,83.3,65c8.8,35.2-3.6,69.1-31.8,89.6C428.7,342,441.1,375.8,432.3,410.9z"/>
	<path fill="#007AFF" d="M417.5,235.4c-6.2-24.7-27.8-53.5-68.5-53.5H246.7v61.8l139.5,69C418.5,293.2,423.5,259.2,417.5,235.4z"/>
</g>
</svg>
